

          <svg width="100%" height="100%" id="attackGraphSVG" title="attackgraph" version="1.1" xmlns="http://www.w3.org/2000/svg"><g transform="translate(1280,663.5)"><g transform="translate(-973.0129737295306,-303.3611079958978)scale(0.8304700240908941)" style="font: 8px sans-serif;"><path class="link" d="M0,0C150,0 150,-316.875 300,-316.875" style="fill: none; stroke-width: 2px; stroke: rgb(204, 204, 204);"></path><path class="link" d="M0,0C175,0 175,-226.875 350,-226.875" style="fill: none; stroke-width: 2px; stroke: rgb(204, 204, 204);"></path><path class="link" d="M0,0C175,0 175,316.875 350,316.875" style="fill: none; stroke-width: 2px; stroke: rgb(204, 204, 204);"></path><path class="link" d="M1400,961.875C1575,961.875 1575,931.875 1750,931.875" style="fill: none; stroke-width: 2px; stroke: rgb(204, 204, 204);"></path><path class="link" d="M1400,961.875C1575,961.875 1575,961.875 1750,961.875" style="fill: none; stroke-width: 2px; stroke: rgb(204, 204, 204);"></path><path class="link" d="M1400,961.875C1575,961.875 1575,991.875 1750,991.875" style="fill: none; stroke-width: 2px; stroke: rgb(204, 204, 204);"></path><path class="link" d="M1750,901.875C1925,901.875 1925,841.875 2100,841.875" style="fill: none; stroke-width: 2px; stroke: rgb(204, 204, 204);"></path><path class="link" d="M1750,901.875C1925,901.875 1925,871.875 2100,871.875" style="fill: none; stroke-width: 2px; stroke: rgb(204, 204, 204);"></path><path class="link" d="M1750,901.875C1925,901.875 1925,901.875 2100,901.875" style="fill: none; stroke-width: 2px; stroke: rgb(204, 204, 204);"></path><path class="link" d="M1750,901.875C1925,901.875 1925,931.875 2100,931.875" style="fill: none; stroke-width: 2px; stroke: rgb(204, 204, 204);"></path><path class="link" d="M1750,901.875C1925,901.875 1925,961.875 2100,961.875" style="fill: none; stroke-width: 2px; stroke: rgb(204, 204, 204);"></path><path class="link" d="M1400,886.875C1575,886.875 1575,871.875 1750,871.875" style="fill: none; stroke-width: 2px; stroke: rgb(204, 204, 204);"></path><path class="link" d="M1400,886.875C1575,886.875 1575,901.875 1750,901.875" style="fill: none; stroke-width: 2px; stroke: rgb(204, 204, 204);"></path><path class="link" d="M1050,924.375C1225,924.375 1225,886.875 1400,886.875" style="fill: none; stroke-width: 2px; stroke: rgb(204, 204, 204);"></path><path class="link" d="M1050,924.375C1225,924.375 1225,961.875 1400,961.875" style="fill: none; stroke-width: 2px; stroke: rgb(204, 204, 204);"></path><path class="link" d="M1400,811.875C1575,811.875 1575,781.875 1750,781.875" style="fill: none; stroke-width: 2px; stroke: rgb(204, 204, 204);"></path><path class="link" d="M1400,811.875C1575,811.875 1575,811.875 1750,811.875" style="fill: none; stroke-width: 2px; stroke: rgb(204, 204, 204);"></path><path class="link" d="M1400,811.875C1575,811.875 1575,841.875 1750,841.875" style="fill: none; stroke-width: 2px; stroke: rgb(204, 204, 204);"></path><path class="link" d="M1400,691.875C1575,691.875 1575,631.875 1750,631.875" style="fill: none; stroke-width: 2px; stroke: rgb(204, 204, 204);"></path><path class="link" d="M1400,691.875C1575,691.875 1575,661.875 1750,661.875" style="fill: none; stroke-width: 2px; stroke: rgb(204, 204, 204);"></path><path class="link" d="M1400,691.875C1575,691.875 1575,691.875 1750,691.875" style="fill: none; stroke-width: 2px; stroke: rgb(204, 204, 204);"></path><path class="link" d="M1400,691.875C1575,691.875 1575,721.875 1750,721.875" style="fill: none; stroke-width: 2px; stroke: rgb(204, 204, 204);"></path><path class="link" d="M1400,691.875C1575,691.875 1575,751.875 1750,751.875" style="fill: none; stroke-width: 2px; stroke: rgb(204, 204, 204);"></path><path class="link" d="M1050,736.875C1225,736.875 1225,661.875 1400,661.875" style="fill: none; stroke-width: 2px; stroke: rgb(204, 204, 204);"></path><path class="link" d="M1050,736.875C1225,736.875 1225,691.875 1400,691.875" style="fill: none; stroke-width: 2px; stroke: rgb(204, 204, 204);"></path><path class="link" d="M1050,736.875C1225,736.875 1225,751.875 1400,751.875" style="fill: none; stroke-width: 2px; stroke: rgb(204, 204, 204);"></path><path class="link" d="M1050,736.875C1225,736.875 1225,811.875 1400,811.875" style="fill: none; stroke-width: 2px; stroke: rgb(204, 204, 204);"></path><path class="link" d="M1050,586.875C1225,586.875 1225,541.875 1400,541.875" style="fill: none; stroke-width: 2px; stroke: rgb(204, 204, 204);"></path><path class="link" d="M1050,586.875C1225,586.875 1225,571.875 1400,571.875" style="fill: none; stroke-width: 2px; stroke: rgb(204, 204, 204);"></path><path class="link" d="M1050,586.875C1225,586.875 1225,601.875 1400,601.875" style="fill: none; stroke-width: 2px; stroke: rgb(204, 204, 204);"></path><path class="link" d="M1050,586.875C1225,586.875 1225,631.875 1400,631.875" style="fill: none; stroke-width: 2px; stroke: rgb(204, 204, 204);"></path><path class="link" d="M700,740.625C875,740.625 875,556.875 1050,556.875" style="fill: none; stroke-width: 2px; stroke: rgb(204, 204, 204);"></path><path class="link" d="M700,740.625C875,740.625 875,586.875 1050,586.875" style="fill: none; stroke-width: 2px; stroke: rgb(204, 204, 204);"></path><path class="link" d="M700,740.625C875,740.625 875,661.875 1050,661.875" style="fill: none; stroke-width: 2px; stroke: rgb(204, 204, 204);"></path><path class="link" d="M700,740.625C875,740.625 875,736.875 1050,736.875" style="fill: none; stroke-width: 2px; stroke: rgb(204, 204, 204);"></path><path class="link" d="M700,740.625C875,740.625 875,924.375 1050,924.375" style="fill: none; stroke-width: 2px; stroke: rgb(204, 204, 204);"></path><path class="link" d="M1400,511.875C1575,511.875 1575,481.875 1750,481.875" style="fill: none; stroke-width: 2px; stroke: rgb(204, 204, 204);"></path><path class="link" d="M1400,511.875C1575,511.875 1575,511.875 1750,511.875" style="fill: none; stroke-width: 2px; stroke: rgb(204, 204, 204);"></path><path class="link" d="M1400,511.875C1575,511.875 1575,541.875 1750,541.875" style="fill: none; stroke-width: 2px; stroke: rgb(204, 204, 204);"></path><path class="link" d="M1750,451.875C1925,451.875 1925,391.875 2100,391.875" style="fill: none; stroke-width: 2px; stroke: rgb(204, 204, 204);"></path><path class="link" d="M1750,451.875C1925,451.875 1925,421.875 2100,421.875" style="fill: none; stroke-width: 2px; stroke: rgb(204, 204, 204);"></path><path class="link" d="M1750,451.875C1925,451.875 1925,451.875 2100,451.875" style="fill: none; stroke-width: 2px; stroke: rgb(204, 204, 204);"></path><path class="link" d="M1750,451.875C1925,451.875 1925,481.875 2100,481.875" style="fill: none; stroke-width: 2px; stroke: rgb(204, 204, 204);"></path><path class="link" d="M1750,451.875C1925,451.875 1925,511.875 2100,511.875" style="fill: none; stroke-width: 2px; stroke: rgb(204, 204, 204);"></path><path class="link" d="M1400,436.875C1575,436.875 1575,421.875 1750,421.875" style="fill: none; stroke-width: 2px; stroke: rgb(204, 204, 204);"></path><path class="link" d="M1400,436.875C1575,436.875 1575,451.875 1750,451.875" style="fill: none; stroke-width: 2px; stroke: rgb(204, 204, 204);"></path><path class="link" d="M1050,474.375C1225,474.375 1225,436.875 1400,436.875" style="fill: none; stroke-width: 2px; stroke: rgb(204, 204, 204);"></path><path class="link" d="M1050,474.375C1225,474.375 1225,511.875 1400,511.875" style="fill: none; stroke-width: 2px; stroke: rgb(204, 204, 204);"></path><path class="link" d="M1400,361.875C1575,361.875 1575,331.875 1750,331.875" style="fill: none; stroke-width: 2px; stroke: rgb(204, 204, 204);"></path><path class="link" d="M1400,361.875C1575,361.875 1575,361.875 1750,361.875" style="fill: none; stroke-width: 2px; stroke: rgb(204, 204, 204);"></path><path class="link" d="M1400,361.875C1575,361.875 1575,391.875 1750,391.875" style="fill: none; stroke-width: 2px; stroke: rgb(204, 204, 204);"></path><path class="link" d="M1400,241.875C1575,241.875 1575,181.875 1750,181.875" style="fill: none; stroke-width: 2px; stroke: rgb(204, 204, 204);"></path><path class="link" d="M1400,241.875C1575,241.875 1575,211.875 1750,211.875" style="fill: none; stroke-width: 2px; stroke: rgb(204, 204, 204);"></path><path class="link" d="M1400,241.875C1575,241.875 1575,241.875 1750,241.875" style="fill: none; stroke-width: 2px; stroke: rgb(204, 204, 204);"></path><path class="link" d="M1400,241.875C1575,241.875 1575,271.875 1750,271.875" style="fill: none; stroke-width: 2px; stroke: rgb(204, 204, 204);"></path><path class="link" d="M1400,241.875C1575,241.875 1575,301.875 1750,301.875" style="fill: none; stroke-width: 2px; stroke: rgb(204, 204, 204);"></path><path class="link" d="M1050,286.875C1225,286.875 1225,211.875 1400,211.875" style="fill: none; stroke-width: 2px; stroke: rgb(204, 204, 204);"></path><path class="link" d="M1050,286.875C1225,286.875 1225,241.875 1400,241.875" style="fill: none; stroke-width: 2px; stroke: rgb(204, 204, 204);"></path><path class="link" d="M1050,286.875C1225,286.875 1225,301.875 1400,301.875" style="fill: none; stroke-width: 2px; stroke: rgb(204, 204, 204);"></path><path class="link" d="M1050,286.875C1225,286.875 1225,361.875 1400,361.875" style="fill: none; stroke-width: 2px; stroke: rgb(204, 204, 204);"></path><path class="link" d="M700,365.625C875,365.625 875,256.875 1050,256.875" style="fill: none; stroke-width: 2px; stroke: rgb(204, 204, 204);"></path><path class="link" d="M700,365.625C875,365.625 875,286.875 1050,286.875" style="fill: none; stroke-width: 2px; stroke: rgb(204, 204, 204);"></path><path class="link" d="M700,365.625C875,365.625 875,474.375 1050,474.375" style="fill: none; stroke-width: 2px; stroke: rgb(204, 204, 204);"></path><path class="link" d="M1400,121.875C1575,121.875 1575,91.875 1750,91.875" style="fill: none; stroke-width: 2px; stroke: rgb(204, 204, 204);"></path><path class="link" d="M1400,121.875C1575,121.875 1575,121.875 1750,121.875" style="fill: none; stroke-width: 2px; stroke: rgb(204, 204, 204);"></path><path class="link" d="M1400,121.875C1575,121.875 1575,151.875 1750,151.875" style="fill: none; stroke-width: 2px; stroke: rgb(204, 204, 204);"></path><path class="link" d="M1750,61.875C1925,61.875 1925,1.875 2100,1.875" style="fill: none; stroke-width: 2px; stroke: rgb(204, 204, 204);"></path><path class="link" d="M1750,61.875C1925,61.875 1925,31.875 2100,31.875" style="fill: none; stroke-width: 2px; stroke: rgb(204, 204, 204);"></path><path class="link" d="M1750,61.875C1925,61.875 1925,61.875 2100,61.875" style="fill: none; stroke-width: 2px; stroke: rgb(204, 204, 204);"></path><path class="link" d="M1750,61.875C1925,61.875 1925,91.875 2100,91.875" style="fill: none; stroke-width: 2px; stroke: rgb(204, 204, 204);"></path><path class="link" d="M1750,61.875C1925,61.875 1925,121.875 2100,121.875" style="fill: none; stroke-width: 2px; stroke: rgb(204, 204, 204);"></path><path class="link" d="M1400,46.875C1575,46.875 1575,31.875 1750,31.875" style="fill: none; stroke-width: 2px; stroke: rgb(204, 204, 204);"></path><path class="link" d="M1400,46.875C1575,46.875 1575,61.875 1750,61.875" style="fill: none; stroke-width: 2px; stroke: rgb(204, 204, 204);"></path><path class="link" d="M1050,84.375C1225,84.375 1225,46.875 1400,46.875" style="fill: none; stroke-width: 2px; stroke: rgb(204, 204, 204);"></path><path class="link" d="M1050,84.375C1225,84.375 1225,121.875 1400,121.875" style="fill: none; stroke-width: 2px; stroke: rgb(204, 204, 204);"></path><path class="link" d="M1400,-28.125C1575,-28.125 1575,-58.125 1750,-58.125" style="fill: none; stroke-width: 2px; stroke: rgb(204, 204, 204);"></path><path class="link" d="M1400,-28.125C1575,-28.125 1575,-28.125 1750,-28.125" style="fill: none; stroke-width: 2px; stroke: rgb(204, 204, 204);"></path><path class="link" d="M1400,-28.125C1575,-28.125 1575,1.875 1750,1.875" style="fill: none; stroke-width: 2px; stroke: rgb(204, 204, 204);"></path><path class="link" d="M1400,-148.125C1575,-148.125 1575,-208.125 1750,-208.125" style="fill: none; stroke-width: 2px; stroke: rgb(204, 204, 204);"></path><path class="link" d="M1400,-148.125C1575,-148.125 1575,-178.125 1750,-178.125" style="fill: none; stroke-width: 2px; stroke: rgb(204, 204, 204);"></path><path class="link" d="M1400,-148.125C1575,-148.125 1575,-148.125 1750,-148.125" style="fill: none; stroke-width: 2px; stroke: rgb(204, 204, 204);"></path><path class="link" d="M1400,-148.125C1575,-148.125 1575,-118.125 1750,-118.125" style="fill: none; stroke-width: 2px; stroke: rgb(204, 204, 204);"></path><path class="link" d="M1400,-148.125C1575,-148.125 1575,-88.125 1750,-88.125" style="fill: none; stroke-width: 2px; stroke: rgb(204, 204, 204);"></path><path class="link" d="M1050,-103.125C1225,-103.125 1225,-178.125 1400,-178.125" style="fill: none; stroke-width: 2px; stroke: rgb(204, 204, 204);"></path><path class="link" d="M1050,-103.125C1225,-103.125 1225,-148.125 1400,-148.125" style="fill: none; stroke-width: 2px; stroke: rgb(204, 204, 204);"></path><path class="link" d="M1050,-103.125C1225,-103.125 1225,-88.125 1400,-88.125" style="fill: none; stroke-width: 2px; stroke: rgb(204, 204, 204);"></path><path class="link" d="M1050,-103.125C1225,-103.125 1225,-28.125 1400,-28.125" style="fill: none; stroke-width: 2px; stroke: rgb(204, 204, 204);"></path><path class="link" d="M1400,-283.125C1575,-283.125 1575,-328.125 1750,-328.125" style="fill: none; stroke-width: 2px; stroke: rgb(204, 204, 204);"></path><path class="link" d="M1400,-283.125C1575,-283.125 1575,-298.125 1750,-298.125" style="fill: none; stroke-width: 2px; stroke: rgb(204, 204, 204);"></path><path class="link" d="M1400,-283.125C1575,-283.125 1575,-268.125 1750,-268.125" style="fill: none; stroke-width: 2px; stroke: rgb(204, 204, 204);"></path><path class="link" d="M1400,-283.125C1575,-283.125 1575,-238.125 1750,-238.125" style="fill: none; stroke-width: 2px; stroke: rgb(204, 204, 204);"></path><path class="link" d="M1200,-298.125C1300,-298.125 1300,-313.125 1400,-313.125" style="fill: none; stroke-width: 2px; stroke: rgb(204, 204, 204);"></path><path class="link" d="M1200,-298.125C1300,-298.125 1300,-283.125 1400,-283.125" style="fill: none; stroke-width: 2px; stroke: rgb(204, 204, 204);"></path><path class="link" d="M700,-106.875C950,-106.875 950,-298.125 1200,-298.125" style="fill: none; stroke-width: 2px; stroke: rgb(204, 204, 204);"></path><path class="link" d="M700,-106.875C875,-106.875 875,-103.125 1050,-103.125" style="fill: none; stroke-width: 2px; stroke: rgb(204, 204, 204);"></path><path class="link" d="M700,-106.875C875,-106.875 875,84.375 1050,84.375" style="fill: none; stroke-width: 2px; stroke: rgb(204, 204, 204);"></path><path class="link" d="M350,316.875C525,316.875 525,-106.875 700,-106.875" style="fill: none; stroke-width: 2px; stroke: rgb(204, 204, 204);"></path><path class="link" d="M350,316.875C525,316.875 525,365.625 700,365.625" style="fill: none; stroke-width: 2px; stroke: rgb(204, 204, 204);"></path><path class="link" d="M350,316.875C525,316.875 525,740.625 700,740.625" style="fill: none; stroke-width: 2px; stroke: rgb(204, 204, 204);"></path><path class="link" d="M350,-226.875C525,-226.875 525,-316.875 700,-316.875" style="fill: none; stroke-width: 2px; stroke: rgb(204, 204, 204);"></path><path class="link" d="M350,-226.875C525,-226.875 525,-286.875 700,-286.875" style="fill: none; stroke-width: 2px; stroke: rgb(204, 204, 204);"></path><path class="link" d="M350,-226.875C525,-226.875 525,-256.875 700,-256.875" style="fill: none; stroke-width: 2px; stroke: rgb(204, 204, 204);"></path><path class="link" d="M350,-226.875C525,-226.875 525,-226.875 700,-226.875" style="fill: none; stroke-width: 2px; stroke: rgb(204, 204, 204);"></path><path class="link" d="M350,-226.875C525,-226.875 525,-196.875 700,-196.875" style="fill: none; stroke-width: 2px; stroke: rgb(204, 204, 204);"></path><path class="link" d="M350,-226.875C525,-226.875 525,-166.875 700,-166.875" style="fill: none; stroke-width: 2px; stroke: rgb(204, 204, 204);"></path><path class="link" d="M350,-226.875C525,-226.875 525,-136.875 700,-136.875" style="fill: none; stroke-width: 2px; stroke: rgb(204, 204, 204);"></path><g class="node" transform="translate(350,316.875)"><circle r="10" style="stroke: rgb(70, 130, 180); fill: rgb(255, 255, 255); stroke-dasharray: 0px, 0px;"></circle><text x="-13" dy=".35em" style="font-size: 12px; fill-opacity: 1;" text-anchor="end">Subvert Legitimate Package</text></g><g class="node" transform="translate(350,-226.875)"><circle r="10" style="stroke: rgb(70, 130, 180); fill: rgb(255, 255, 255); stroke-dasharray: 0px, 0px;"></circle><text x="-13" dy=".35em" style="font-size: 12px; fill-opacity: 1;" text-anchor="end">Create Name Confusion with Legitimate Package</text></g><g class="node" transform="translate(300,-316.875)"><circle r="10" style="stroke: rgb(70, 130, 180); fill: rgb(255, 255, 255); stroke-dasharray: 0px, 0px;"></circle><text x="13" dy=".35em" style="font-size: 12px; fill-opacity: 1;" text-anchor="start">Develop and Advertise Distinct Malicious Package from Scratch</text></g><g class="node" transform="translate(0,0)"><circle r="10" style="stroke: rgb(70, 130, 180); fill: rgb(255, 255, 255); stroke-dasharray: 0px, 0px;"></circle><text x="-13" dy=".35em" style="font-size: 12px; fill-opacity: 1;" text-anchor="end">Conduct Open-Source Supply Chain Attack</text></g><g class="node" transform="translate(1750,991.875)"><circle r="10" style="stroke: rgb(70, 130, 180); fill: rgb(255, 255, 255); stroke-dasharray: 8px, 3px;"></circle><text x="13" dy=".35em" style="font-size: 12px; fill-opacity: 1;" text-anchor="start">Infect through Malicious Component</text></g><g class="node" transform="translate(1750,961.875)"><circle r="10" style="stroke: rgb(0, 100, 0); fill: url(&quot;#Triangle&quot;); stroke-dasharray: 0px, 0px;"></circle><text x="13" dy=".35em" style="font-size: 12px; fill-opacity: 1;" text-anchor="start">Exploit Vulnerabilities</text></g><g class="node" transform="translate(1750,931.875)"><circle r="10" style="stroke: rgb(0, 100, 0); fill: url(&quot;#Triangle&quot;); stroke-dasharray: 0px, 0px;"></circle><text x="13" dy=".35em" style="font-size: 12px; fill-opacity: 1;" text-anchor="start">Exploit Weak Configuration</text></g><g class="node" transform="translate(1400,961.875)"><circle r="10" style="stroke: rgb(0, 100, 0); fill: url(&quot;#Triangle&quot;); stroke-dasharray: 0px, 0px;"></circle><text x="-13" dy=".35em" style="font-size: 12px; fill-opacity: 1;" text-anchor="end">Compromise Hosting System</text></g><g class="node" transform="translate(2100,961.875)"><circle r="10" style="stroke: rgb(178, 34, 34); fill: url(&quot;#pattern-stripe&quot;); stroke-dasharray: 0px, 0px;"></circle><text x="13" dy=".35em" style="font-size: 12px; fill-opacity: 1;" text-anchor="start">Reuse of Existing Session</text></g><g class="node" transform="translate(2100,931.875)"><circle r="10" style="stroke: rgb(178, 34, 34); fill: url(&quot;#pattern-stripe&quot;); stroke-dasharray: 0px, 0px;"></circle><text x="13" dy=".35em" style="font-size: 12px; fill-opacity: 1;" text-anchor="start">Social Engineering to Obtain Credentials</text></g><g class="node" transform="translate(2100,901.875)"><circle r="10" style="stroke: rgb(178, 34, 34); fill: url(&quot;#pattern-stripe&quot;); stroke-dasharray: 0px, 0px;"></circle><text x="13" dy=".35em" style="font-size: 12px; fill-opacity: 1;" text-anchor="start">Reuse of Leaked API Tokens</text></g><g class="node" transform="translate(2100,871.875)"><circle r="10" style="stroke: rgb(178, 34, 34); fill: url(&quot;#pattern-stripe&quot;); stroke-dasharray: 0px, 0px;"></circle><text x="13" dy=".35em" style="font-size: 12px; fill-opacity: 1;" text-anchor="start">Bruteforce</text></g><g class="node" transform="translate(2100,841.875)"><circle r="10" style="stroke: rgb(178, 34, 34); fill: url(&quot;#pattern-stripe&quot;); stroke-dasharray: 0px, 0px;"></circle><text x="13" dy=".35em" style="font-size: 12px; fill-opacity: 1;" text-anchor="start">Reuse of Compromised Credentials</text></g><g class="node" transform="translate(1750,901.875)"><circle r="10" style="stroke: rgb(178, 34, 34); fill: url(&quot;#pattern-stripe&quot;); stroke-dasharray: 0px, 0px;"></circle><text x="-13" dy=".35em" style="font-size: 12px; fill-opacity: 1;" text-anchor="end">Take-over Legitimate Account</text></g><g class="node" transform="translate(1750,871.875)"><circle r="10" style="stroke: rgb(178, 34, 34); fill: url(&quot;#pattern-stripe&quot;); stroke-dasharray: 0px, 0px;"></circle><text x="13" dy=".35em" style="font-size: 12px; fill-opacity: 1;" text-anchor="start">Bribe or Blackmail Legitimate User</text></g><g class="node" transform="translate(1400,886.875)"><circle r="10" style="stroke: rgb(178, 34, 34); fill: url(&quot;#pattern-stripe&quot;); stroke-dasharray: 0px, 0px;"></circle><text x="-13" dy=".35em" style="font-size: 12px; fill-opacity: 1;" text-anchor="end">Compromise User (Project Maintainer/Administrator)</text></g><g class="node" transform="translate(1050,924.375)"><circle r="10" style="stroke: rgb(70, 130, 180); fill: rgb(255, 255, 255); stroke-dasharray: 0px, 0px;"></circle><text x="-13" dy=".35em" style="font-size: 12px; fill-opacity: 1;" text-anchor="end">Inject into Hosting System</text></g><g class="node" transform="translate(1750,841.875)"><circle r="10" style="stroke: rgb(70, 130, 180); fill: rgb(255, 255, 255); stroke-dasharray: 8px, 3px;"></circle><text x="13" dy=".35em" style="font-size: 12px; fill-opacity: 1;" text-anchor="start">Infect through Malicious Component</text></g><g class="node" transform="translate(1750,811.875)"><circle r="10" style="stroke: rgb(0, 100, 0); fill: url(&quot;#Triangle&quot;); stroke-dasharray: 0px, 0px;"></circle><text x="13" dy=".35em" style="font-size: 12px; fill-opacity: 1;" text-anchor="start">Exploit Vulnerabilities</text></g><g class="node" transform="translate(1750,781.875)"><circle r="10" style="stroke: rgb(0, 100, 0); fill: url(&quot;#Triangle&quot;); stroke-dasharray: 0px, 0px;"></circle><text x="13" dy=".35em" style="font-size: 12px; fill-opacity: 1;" text-anchor="start">Exploit Weak Configuration</text></g><g class="node" transform="translate(1400,811.875)"><circle r="10" style="stroke: rgb(0, 100, 0); fill: url(&quot;#Triangle&quot;); stroke-dasharray: 0px, 0px;"></circle><text x="-13" dy=".35em" style="font-size: 12px; fill-opacity: 1;" text-anchor="end">Compromise Maintainer System</text></g><g class="node" transform="translate(1400,751.875)"><circle r="10" style="stroke: rgb(255, 215, 0); fill: url(&quot;#vertical-stripe&quot;); stroke-dasharray: 0px, 0px;"></circle><text x="13" dy=".35em" style="font-size: 12px; fill-opacity: 1;" text-anchor="start">Become a Maintainer</text></g><g class="node" transform="translate(1750,751.875)"><circle r="10" style="stroke: rgb(178, 34, 34); fill: url(&quot;#pattern-stripe&quot;); stroke-dasharray: 0px, 0px;"></circle><text x="13" dy=".35em" style="font-size: 12px; fill-opacity: 1;" text-anchor="start">Reuse of Existing Session</text></g><g class="node" transform="translate(1750,721.875)"><circle r="10" style="stroke: rgb(178, 34, 34); fill: url(&quot;#pattern-stripe&quot;); stroke-dasharray: 0px, 0px;"></circle><text x="13" dy=".35em" style="font-size: 12px; fill-opacity: 1;" text-anchor="start">Social Engineering to Obtain Credentials</text></g><g class="node" transform="translate(1750,691.875)"><circle r="10" style="stroke: rgb(178, 34, 34); fill: url(&quot;#pattern-stripe&quot;); stroke-dasharray: 0px, 0px;"></circle><text x="13" dy=".35em" style="font-size: 12px; fill-opacity: 1;" text-anchor="start">Reuse of Leaked API Tokens</text></g><g class="node" transform="translate(1750,661.875)"><circle r="10" style="stroke: rgb(178, 34, 34); fill: url(&quot;#pattern-stripe&quot;); stroke-dasharray: 0px, 0px;"></circle><text x="13" dy=".35em" style="font-size: 12px; fill-opacity: 1;" text-anchor="start">Bruteforce</text></g><g class="node" transform="translate(1750,631.875)"><circle r="10" style="stroke: rgb(178, 34, 34); fill: url(&quot;#pattern-stripe&quot;); stroke-dasharray: 0px, 0px;"></circle><text x="13" dy=".35em" style="font-size: 12px; fill-opacity: 1;" text-anchor="start">Reuse of Compromised Credentials</text></g><g class="node" transform="translate(1400,691.875)"><circle r="10" style="stroke: rgb(178, 34, 34); fill: url(&quot;#pattern-stripe&quot;); stroke-dasharray: 0px, 0px;"></circle><text x="-13" dy=".35em" style="font-size: 12px; fill-opacity: 1;" text-anchor="end">Take-over Legitimate Account</text></g><g class="node" transform="translate(1400,661.875)"><circle r="10" style="stroke: rgb(178, 34, 34); fill: url(&quot;#pattern-stripe&quot;); stroke-dasharray: 0px, 0px;"></circle><text x="13" dy=".35em" style="font-size: 12px; fill-opacity: 1;" text-anchor="start">Bribe or Blackmail Legitimate User</text></g><g class="node" transform="translate(1050,736.875)"><circle r="10" style="stroke: rgb(70, 130, 180); fill: rgb(255, 255, 255); stroke-dasharray: 0px, 0px;"></circle><text x="-13" dy=".35em" style="font-size: 12px; fill-opacity: 1;" text-anchor="end">Distribute as Package Maintainer</text></g><g class="node" transform="translate(1050,661.875)"><circle r="10" style="stroke: rgb(70, 130, 180); fill: rgb(255, 255, 255); stroke-dasharray: 0px, 0px;"></circle><text x="13" dy=".35em" style="font-size: 12px; fill-opacity: 1;" text-anchor="start">Prevent Update to Non-Vulnerable Version</text></g><g class="node" transform="translate(1400,631.875)"><circle r="10" style="stroke: rgb(70, 130, 180); fill: rgb(255, 255, 255); stroke-dasharray: 0px, 0px;"></circle><text x="13" dy=".35em" style="font-size: 12px; fill-opacity: 1;" text-anchor="start">Abuse Dependency Resolution Mechanism</text></g><g class="node" transform="translate(1400,601.875)"><circle r="10" style="stroke: rgb(70, 130, 180); fill: rgb(255, 255, 255); stroke-dasharray: 0px, 0px;"></circle><text x="13" dy=".35em" style="font-size: 12px; fill-opacity: 1;" text-anchor="start">Tamper Legitimate URL</text></g><g class="node" transform="translate(1400,571.875)"><circle r="10" style="stroke: rgb(70, 130, 180); fill: rgb(255, 255, 255); stroke-dasharray: 0px, 0px;"></circle><text x="13" dy=".35em" style="font-size: 12px; fill-opacity: 1;" text-anchor="start">DNS Cache Poisoning</text></g><g class="node" transform="translate(1400,541.875)"><circle r="10" style="stroke: rgb(70, 130, 180); fill: rgb(255, 255, 255); stroke-dasharray: 0px, 0px;"></circle><text x="13" dy=".35em" style="font-size: 12px; fill-opacity: 1;" text-anchor="start">MITM Attack</text></g><g class="node" transform="translate(1050,586.875)"><circle r="10" style="stroke: rgb(70, 130, 180); fill: rgb(255, 255, 255); stroke-dasharray: 0px, 0px;"></circle><text x="-13" dy=".35em" style="font-size: 12px; fill-opacity: 1;" text-anchor="end">Mask Legitimate Package</text></g><g class="node" transform="translate(1050,556.875)"><circle r="10" style="stroke: rgb(70, 130, 180); fill: rgb(255, 255, 255); stroke-dasharray: 0px, 0px;"></circle><text x="13" dy=".35em" style="font-size: 12px; fill-opacity: 1;" text-anchor="start">Dangling Reference</text></g><g class="node" transform="translate(700,740.625)"><circle r="10" style="stroke: rgb(70, 130, 180); fill: rgb(255, 255, 255); stroke-dasharray: 0px, 0px;"></circle><text x="-13" dy=".35em" style="font-size: 12px; fill-opacity: 1;" text-anchor="end">Distribute Malicious Version of Legitimate Package</text></g><g class="node" transform="translate(1750,541.875)"><circle r="10" style="stroke: rgb(70, 130, 180); fill: rgb(255, 255, 255); stroke-dasharray: 8px, 3px;"></circle><text x="13" dy=".35em" style="font-size: 12px; fill-opacity: 1;" text-anchor="start">Infect through Malicious Component</text></g><g class="node" transform="translate(1750,511.875)"><circle r="10" style="stroke: rgb(0, 100, 0); fill: url(&quot;#Triangle&quot;); stroke-dasharray: 0px, 0px;"></circle><text x="13" dy=".35em" style="font-size: 12px; fill-opacity: 1;" text-anchor="start">Exploit Vulnerabilities</text></g><g class="node" transform="translate(1750,481.875)"><circle r="10" style="stroke: rgb(0, 100, 0); fill: url(&quot;#Triangle&quot;); stroke-dasharray: 0px, 0px;"></circle><text x="13" dy=".35em" style="font-size: 12px; fill-opacity: 1;" text-anchor="start">Exploit Weak Configuration</text></g><g class="node" transform="translate(1400,511.875)"><circle r="10" style="stroke: rgb(0, 100, 0); fill: url(&quot;#Triangle&quot;); stroke-dasharray: 0px, 0px;"></circle><text x="-13" dy=".35em" style="font-size: 12px; fill-opacity: 1;" text-anchor="end">Compromise Build System</text></g><g class="node" transform="translate(2100,511.875)"><circle r="10" style="stroke: rgb(178, 34, 34); fill: url(&quot;#pattern-stripe&quot;); stroke-dasharray: 0px, 0px;"></circle><text x="13" dy=".35em" style="font-size: 12px; fill-opacity: 1;" text-anchor="start">Reuse of Existing Session</text></g><g class="node" transform="translate(2100,481.875)"><circle r="10" style="stroke: rgb(178, 34, 34); fill: url(&quot;#pattern-stripe&quot;); stroke-dasharray: 0px, 0px;"></circle><text x="13" dy=".35em" style="font-size: 12px; fill-opacity: 1;" text-anchor="start">Social Engineering to Obtain Credentials</text></g><g class="node" transform="translate(2100,451.875)"><circle r="10" style="stroke: rgb(178, 34, 34); fill: url(&quot;#pattern-stripe&quot;); stroke-dasharray: 0px, 0px;"></circle><text x="13" dy=".35em" style="font-size: 12px; fill-opacity: 1;" text-anchor="start">Reuse of Leaked API Tokens</text></g><g class="node" transform="translate(2100,421.875)"><circle r="10" style="stroke: rgb(178, 34, 34); fill: url(&quot;#pattern-stripe&quot;); stroke-dasharray: 0px, 0px;"></circle><text x="13" dy=".35em" style="font-size: 12px; fill-opacity: 1;" text-anchor="start">Bruteforce</text></g><g class="node" transform="translate(2100,391.875)"><circle r="10" style="stroke: rgb(178, 34, 34); fill: url(&quot;#pattern-stripe&quot;); stroke-dasharray: 0px, 0px;"></circle><text x="13" dy=".35em" style="font-size: 12px; fill-opacity: 1;" text-anchor="start">Reuse of Compromised Credentials</text></g><g class="node" transform="translate(1750,451.875)"><circle r="10" style="stroke: rgb(178, 34, 34); fill: url(&quot;#pattern-stripe&quot;); stroke-dasharray: 0px, 0px;"></circle><text x="-13" dy=".35em" style="font-size: 12px; fill-opacity: 1;" text-anchor="end">Take-over Legitimate Account</text></g><g class="node" transform="translate(1750,421.875)"><circle r="10" style="stroke: rgb(178, 34, 34); fill: url(&quot;#pattern-stripe&quot;); stroke-dasharray: 0px, 0px;"></circle><text x="13" dy=".35em" style="font-size: 12px; fill-opacity: 1;" text-anchor="start">Bribe or Blackmail Legitimate User</text></g><g class="node" transform="translate(1400,436.875)"><circle r="10" style="stroke: rgb(178, 34, 34); fill: url(&quot;#pattern-stripe&quot;); stroke-dasharray: 0px, 0px;"></circle><text x="-13" dy=".35em" style="font-size: 12px; fill-opacity: 1;" text-anchor="end">Compromise User (Project Maintainer/Administrator)</text></g><g class="node" transform="translate(1050,474.375)"><circle r="10" style="stroke: rgb(70, 130, 180); fill: rgb(255, 255, 255); stroke-dasharray: 0px, 0px;"></circle><text x="-13" dy=".35em" style="font-size: 12px; fill-opacity: 1;" text-anchor="end">Tamper with Exposed Build System</text></g><g class="node" transform="translate(1750,391.875)"><circle r="10" style="stroke: rgb(70, 130, 180); fill: rgb(255, 255, 255); stroke-dasharray: 8px, 3px;"></circle><text x="13" dy=".35em" style="font-size: 12px; fill-opacity: 1;" text-anchor="start">Infect through Malicious Component</text></g><g class="node" transform="translate(1750,361.875)"><circle r="10" style="stroke: rgb(0, 100, 0); fill: url(&quot;#Triangle&quot;); stroke-dasharray: 0px, 0px;"></circle><text x="13" dy=".35em" style="font-size: 12px; fill-opacity: 1;" text-anchor="start">Exploit Vulnerabilities</text></g><g class="node" transform="translate(1750,331.875)"><circle r="10" style="stroke: rgb(0, 100, 0); fill: url(&quot;#Triangle&quot;); stroke-dasharray: 0px, 0px;"></circle><text x="13" dy=".35em" style="font-size: 12px; fill-opacity: 1;" text-anchor="start">Exploit Weak Configuration</text></g><g class="node" transform="translate(1400,361.875)"><circle r="10" style="stroke: rgb(0, 100, 0); fill: url(&quot;#Triangle&quot;); stroke-dasharray: 0px, 0px;"></circle><text x="-13" dy=".35em" style="font-size: 12px; fill-opacity: 1;" text-anchor="end">Compromise Maintainer System</text></g><g class="node" transform="translate(1400,301.875)"><circle r="10" style="stroke: rgb(255, 215, 0); fill: url(&quot;#vertical-stripe&quot;); stroke-dasharray: 0px, 0px;"></circle><text x="13" dy=".35em" style="font-size: 12px; fill-opacity: 1;" text-anchor="start">Become a Maintainer</text></g><g class="node" transform="translate(1750,301.875)"><circle r="10" style="stroke: rgb(178, 34, 34); fill: url(&quot;#pattern-stripe&quot;); stroke-dasharray: 0px, 0px;"></circle><text x="13" dy=".35em" style="font-size: 12px; fill-opacity: 1;" text-anchor="start">Reuse of Existing Session</text></g><g class="node" transform="translate(1750,271.875)"><circle r="10" style="stroke: rgb(178, 34, 34); fill: url(&quot;#pattern-stripe&quot;); stroke-dasharray: 0px, 0px;"></circle><text x="13" dy=".35em" style="font-size: 12px; fill-opacity: 1;" text-anchor="start">Social Engineering to Obtain Credentials</text></g><g class="node" transform="translate(1750,241.875)"><circle r="10" style="stroke: rgb(178, 34, 34); fill: url(&quot;#pattern-stripe&quot;); stroke-dasharray: 0px, 0px;"></circle><text x="13" dy=".35em" style="font-size: 12px; fill-opacity: 1;" text-anchor="start">Reuse of Leaked API Tokens</text></g><g class="node" transform="translate(1750,211.875)"><circle r="10" style="stroke: rgb(178, 34, 34); fill: url(&quot;#pattern-stripe&quot;); stroke-dasharray: 0px, 0px;"></circle><text x="13" dy=".35em" style="font-size: 12px; fill-opacity: 1;" text-anchor="start">Bruteforce</text></g><g class="node" transform="translate(1750,181.875)"><circle r="10" style="stroke: rgb(178, 34, 34); fill: url(&quot;#pattern-stripe&quot;); stroke-dasharray: 0px, 0px;"></circle><text x="13" dy=".35em" style="font-size: 12px; fill-opacity: 1;" text-anchor="start">Reuse of Compromised Credentials</text></g><g class="node" transform="translate(1400,241.875)"><circle r="10" style="stroke: rgb(178, 34, 34); fill: url(&quot;#pattern-stripe&quot;); stroke-dasharray: 0px, 0px;"></circle><text x="-13" dy=".35em" style="font-size: 12px; fill-opacity: 1;" text-anchor="end">Take-over Legitimate Account</text></g><g class="node" transform="translate(1400,211.875)"><circle r="10" style="stroke: rgb(178, 34, 34); fill: url(&quot;#pattern-stripe&quot;); stroke-dasharray: 0px, 0px;"></circle><text x="13" dy=".35em" style="font-size: 12px; fill-opacity: 1;" text-anchor="start">Bribe or Blackmail Legitimate User</text></g><g class="node" transform="translate(1050,286.875)"><circle r="10" style="stroke: rgb(70, 130, 180); fill: rgb(255, 255, 255); stroke-dasharray: 0px, 0px;"></circle><text x="-13" dy=".35em" style="font-size: 12px; fill-opacity: 1;" text-anchor="end">Tamper Build Job as Maintainer</text></g><g class="node" transform="translate(1050,256.875)"><circle r="10" style="stroke: rgb(70, 130, 180); fill: rgb(255, 255, 255); stroke-dasharray: 0px, 0px;"></circle><text x="13" dy=".35em" style="font-size: 12px; fill-opacity: 1;" text-anchor="start">Run Malicious Build</text></g><g class="node" transform="translate(700,365.625)"><circle r="10" style="stroke: rgb(70, 130, 180); fill: rgb(255, 255, 255); stroke-dasharray: 0px, 0px;"></circle><text x="-13" dy=".35em" style="font-size: 12px; fill-opacity: 1;" text-anchor="end">Inject During the Build of Legitimate Package</text></g><g class="node" transform="translate(1750,151.875)"><circle r="10" style="stroke: rgb(70, 130, 180); fill: rgb(255, 255, 255); stroke-dasharray: 8px, 3px;"></circle><text x="13" dy=".35em" style="font-size: 12px; fill-opacity: 1;" text-anchor="start">Infect through Malicious Component</text></g><g class="node" transform="translate(1750,121.875)"><circle r="10" style="stroke: rgb(0, 100, 0); fill: url(&quot;#Triangle&quot;); stroke-dasharray: 0px, 0px;"></circle><text x="13" dy=".35em" style="font-size: 12px; fill-opacity: 1;" text-anchor="start">Exploit Vulnerabilities</text></g><g class="node" transform="translate(1750,91.875)"><circle r="10" style="stroke: rgb(0, 100, 0); fill: url(&quot;#Triangle&quot;); stroke-dasharray: 0px, 0px;"></circle><text x="13" dy=".35em" style="font-size: 12px; fill-opacity: 1;" text-anchor="start">Exploit Weak Configuration</text></g><g class="node" transform="translate(1400,121.875)"><circle r="10" style="stroke: rgb(0, 100, 0); fill: url(&quot;#Triangle&quot;); stroke-dasharray: 0px, 0px;"></circle><text x="-13" dy=".35em" style="font-size: 12px; fill-opacity: 1;" text-anchor="end">Compromise Version Control System</text></g><g class="node" transform="translate(2100,121.875)"><circle r="10" style="stroke: rgb(178, 34, 34); fill: url(&quot;#pattern-stripe&quot;); stroke-dasharray: 0px, 0px;"></circle><text x="13" dy=".35em" style="font-size: 12px; fill-opacity: 1;" text-anchor="start">Reuse of Existing Session</text></g><g class="node" transform="translate(2100,91.875)"><circle r="10" style="stroke: rgb(178, 34, 34); fill: url(&quot;#pattern-stripe&quot;); stroke-dasharray: 0px, 0px;"></circle><text x="13" dy=".35em" style="font-size: 12px; fill-opacity: 1;" text-anchor="start">Social Engineering to Obtain Credentials</text></g><g class="node" transform="translate(2100,61.875)"><circle r="10" style="stroke: rgb(178, 34, 34); fill: url(&quot;#pattern-stripe&quot;); stroke-dasharray: 0px, 0px;"></circle><text x="13" dy=".35em" style="font-size: 12px; fill-opacity: 1;" text-anchor="start">Reuse of Leaked API Tokens</text></g><g class="node" transform="translate(2100,31.875)"><circle r="10" style="stroke: rgb(178, 34, 34); fill: url(&quot;#pattern-stripe&quot;); stroke-dasharray: 0px, 0px;"></circle><text x="13" dy=".35em" style="font-size: 12px; fill-opacity: 1;" text-anchor="start">Bruteforce</text></g><g class="node" transform="translate(2100,1.875)"><circle r="10" style="stroke: rgb(178, 34, 34); fill: url(&quot;#pattern-stripe&quot;); stroke-dasharray: 0px, 0px;"></circle><text x="13" dy=".35em" style="font-size: 12px; fill-opacity: 1;" text-anchor="start">Reuse of Compromised Credentials</text></g><g class="node" transform="translate(1750,61.875)"><circle r="10" style="stroke: rgb(178, 34, 34); fill: url(&quot;#pattern-stripe&quot;); stroke-dasharray: 0px, 0px;"></circle><text x="-13" dy=".35em" style="font-size: 12px; fill-opacity: 1;" text-anchor="end">Take-over Legitimate Account</text></g><g class="node" transform="translate(1750,31.875)"><circle r="10" style="stroke: rgb(178, 34, 34); fill: url(&quot;#pattern-stripe&quot;); stroke-dasharray: 0px, 0px;"></circle><text x="13" dy=".35em" style="font-size: 12px; fill-opacity: 1;" text-anchor="start">Bribe or Blackmail Legitimate User</text></g><g class="node" transform="translate(1400,46.875)"><circle r="10" style="stroke: rgb(178, 34, 34); fill: url(&quot;#pattern-stripe&quot;); stroke-dasharray: 0px, 0px;"></circle><text x="-13" dy=".35em" style="font-size: 12px; fill-opacity: 1;" text-anchor="end">Compromise User (Project Maintainer/Administrator)</text></g><g class="node" transform="translate(1050,84.375)"><circle r="10" style="stroke: rgb(70, 130, 180); fill: rgb(255, 255, 255); stroke-dasharray: 0px, 0px;"></circle><text x="-13" dy=".35em" style="font-size: 12px; fill-opacity: 1;" text-anchor="end">Tamper with Version Control System</text></g><g class="node" transform="translate(1750,1.875)"><circle r="10" style="stroke: rgb(70, 130, 180); fill: rgb(255, 255, 255); stroke-dasharray: 8px, 3px;"></circle><text x="13" dy=".35em" style="font-size: 12px; fill-opacity: 1;" text-anchor="start">Infect through Malicious Component</text></g><g class="node" transform="translate(1750,-28.125)"><circle r="10" style="stroke: rgb(0, 100, 0); fill: url(&quot;#Triangle&quot;); stroke-dasharray: 0px, 0px;"></circle><text x="13" dy=".35em" style="font-size: 12px; fill-opacity: 1;" text-anchor="start">Exploit Vulnerabilities</text></g><g class="node" transform="translate(1750,-58.125)"><circle r="10" style="stroke: rgb(0, 100, 0); fill: url(&quot;#Triangle&quot;); stroke-dasharray: 0px, 0px;"></circle><text x="13" dy=".35em" style="font-size: 12px; fill-opacity: 1;" text-anchor="start">Exploit Weak Configuration</text></g><g class="node" transform="translate(1400,-28.125)"><circle r="10" style="stroke: rgb(0, 100, 0); fill: url(&quot;#Triangle&quot;); stroke-dasharray: 0px, 0px;"></circle><text x="-13" dy=".35em" style="font-size: 12px; fill-opacity: 1;" text-anchor="end">Compromise Maintainer System</text></g><g class="node" transform="translate(1400,-88.125)"><circle r="10" style="stroke: rgb(255, 215, 0); fill: url(&quot;#vertical-stripe&quot;); stroke-dasharray: 0px, 0px;"></circle><text x="13" dy=".35em" style="font-size: 12px; fill-opacity: 1;" text-anchor="start">Become a Maintainer</text></g><g class="node" transform="translate(1750,-88.125)"><circle r="10" style="stroke: rgb(178, 34, 34); fill: url(&quot;#pattern-stripe&quot;); stroke-dasharray: 0px, 0px;"></circle><text x="13" dy=".35em" style="font-size: 12px; fill-opacity: 1;" text-anchor="start">Reuse of Existing Session</text></g><g class="node" transform="translate(1750,-118.125)"><circle r="10" style="stroke: rgb(178, 34, 34); fill: url(&quot;#pattern-stripe&quot;); stroke-dasharray: 0px, 0px;"></circle><text x="13" dy=".35em" style="font-size: 12px; fill-opacity: 1;" text-anchor="start">Social Engineering to Obtain Credentials</text></g><g class="node" transform="translate(1750,-148.125)"><circle r="10" style="stroke: rgb(178, 34, 34); fill: url(&quot;#pattern-stripe&quot;); stroke-dasharray: 0px, 0px;"></circle><text x="13" dy=".35em" style="font-size: 12px; fill-opacity: 1;" text-anchor="start">Reuse of Leaked API Tokens</text></g><g class="node" transform="translate(1750,-178.125)"><circle r="10" style="stroke: rgb(178, 34, 34); fill: url(&quot;#pattern-stripe&quot;); stroke-dasharray: 0px, 0px;"></circle><text x="13" dy=".35em" style="font-size: 12px; fill-opacity: 1;" text-anchor="start">Bruteforce</text></g><g class="node" transform="translate(1750,-208.125)"><circle r="10" style="stroke: rgb(178, 34, 34); fill: url(&quot;#pattern-stripe&quot;); stroke-dasharray: 0px, 0px;"></circle><text x="13" dy=".35em" style="font-size: 12px; fill-opacity: 1;" text-anchor="start">Reuse of Compromised Credentials</text></g><g class="node" transform="translate(1400,-148.125)"><circle r="10" style="stroke: rgb(178, 34, 34); fill: url(&quot;#pattern-stripe&quot;); stroke-dasharray: 0px, 0px;"></circle><text x="-13" dy=".35em" style="font-size: 12px; fill-opacity: 1;" text-anchor="end">Take-over Legitimate Account</text></g><g class="node" transform="translate(1400,-178.125)"><circle r="10" style="stroke: rgb(178, 34, 34); fill: url(&quot;#pattern-stripe&quot;); stroke-dasharray: 0px, 0px;"></circle><text x="13" dy=".35em" style="font-size: 12px; fill-opacity: 1;" text-anchor="start">Bribe or Blackmail Legitimate User</text></g><g class="node" transform="translate(1050,-103.125)"><circle r="10" style="stroke: rgb(70, 130, 180); fill: rgb(255, 255, 255); stroke-dasharray: 0px, 0px;"></circle><text x="-13" dy=".35em" style="font-size: 12px; fill-opacity: 1;" text-anchor="end">Contribute as Maintainer</text></g><g class="node" transform="translate(1750,-238.125)"><circle r="10" style="stroke: rgb(70, 130, 180); fill: rgb(255, 255, 255); stroke-dasharray: 0px, 0px;"></circle><text x="13" dy=".35em" style="font-size: 12px; fill-opacity: 1;" text-anchor="start">Hide in Generated/Compiled/Minified Code</text></g><g class="node" transform="translate(1750,-268.125)"><circle r="10" style="stroke: rgb(70, 130, 180); fill: rgb(255, 255, 255); stroke-dasharray: 0px, 0px;"></circle><text x="13" dy=".35em" style="font-size: 12px; fill-opacity: 1;" text-anchor="start">Prevent Display of File Differences</text></g><g class="node" transform="translate(1750,-298.125)"><circle r="10" style="stroke: rgb(70, 130, 180); fill: rgb(255, 255, 255); stroke-dasharray: 0px, 0px;"></circle><text x="13" dy=".35em" style="font-size: 12px; fill-opacity: 1;" text-anchor="start">Use Homoglyphs</text></g><g class="node" transform="translate(1750,-328.125)"><circle r="10" style="stroke: rgb(70, 130, 180); fill: rgb(255, 255, 255); stroke-dasharray: 0px, 0px;"></circle><text x="13" dy=".35em" style="font-size: 12px; fill-opacity: 1;" text-anchor="start">Exploit Unicode Bidirectional Algorithm</text></g><g class="node" transform="translate(1400,-283.125)"><circle r="10" style="stroke: rgb(70, 130, 180); fill: rgb(255, 255, 255); stroke-dasharray: 0px, 0px;"></circle><text x="-13" dy=".35em" style="font-size: 12px; fill-opacity: 1;" text-anchor="end">Exploit Rendering Weakness</text></g><g class="node" transform="translate(1400,-313.125)"><circle r="10" style="stroke: rgb(70, 130, 180); fill: rgb(255, 255, 255); stroke-dasharray: 0px, 0px;"></circle><text x="13" dy=".35em" style="font-size: 12px; fill-opacity: 1;" text-anchor="start">Make Immature Vulnerability Exploitable</text></g><g class="node" transform="translate(1200,-298.125)"><circle r="10" style="stroke: rgb(70, 130, 180); fill: rgb(255, 255, 255); stroke-dasharray: 0px, 0px;"></circle><text x="-13" dy=".35em" style="font-size: 12px; fill-opacity: 1;" text-anchor="end">Introduce Malicious Code through Hypocrite Merge Request</text></g><g class="node" transform="translate(700,-106.875)"><circle r="10" style="stroke: rgb(70, 130, 180); fill: rgb(255, 255, 255); stroke-dasharray: 0px, 0px;"></circle><text x="-13" dy=".35em" style="font-size: 12px; fill-opacity: 1;" text-anchor="end">Inject into Sources of Legitimate Package</text></g><g class="node" transform="translate(700,-136.875)"><circle r="10" style="stroke: rgb(70, 130, 180); fill: rgb(255, 255, 255); stroke-dasharray: 0px, 0px;"></circle><text x="13" dy=".35em" style="font-size: 12px; fill-opacity: 1;" text-anchor="start">Similarity Attack</text></g><g class="node" transform="translate(700,-166.875)"><circle r="10" style="stroke: rgb(70, 130, 180); fill: rgb(255, 255, 255); stroke-dasharray: 0px, 0px;"></circle><text x="13" dy=".35em" style="font-size: 12px; fill-opacity: 1;" text-anchor="start">Brandjacking</text></g><g class="node" transform="translate(700,-196.875)"><circle r="10" style="stroke: rgb(70, 130, 180); fill: rgb(255, 255, 255); stroke-dasharray: 0px, 0px;"></circle><text x="13" dy=".35em" style="font-size: 12px; fill-opacity: 1;" text-anchor="start">Built-In Package</text></g><g class="node" transform="translate(700,-226.875)"><circle r="10" style="stroke: rgb(70, 130, 180); fill: rgb(255, 255, 255); stroke-dasharray: 0px, 0px;"></circle><text x="13" dy=".35em" style="font-size: 12px; fill-opacity: 1;" text-anchor="start">Typosquatting</text></g><g class="node" transform="translate(700,-256.875)"><circle r="10" style="stroke: rgb(70, 130, 180); fill: rgb(255, 255, 255); stroke-dasharray: 0px, 0px;"></circle><text x="13" dy=".35em" style="font-size: 12px; fill-opacity: 1;" text-anchor="start">Manipulating Word Separators</text></g><g class="node" transform="translate(700,-286.875)"><circle r="10" style="stroke: rgb(70, 130, 180); fill: rgb(255, 255, 255); stroke-dasharray: 0px, 0px;"></circle><text x="13" dy=".35em" style="font-size: 12px; fill-opacity: 1;" text-anchor="start">Altering Word Order</text></g><g class="node" transform="translate(700,-316.875)"><circle r="10" style="stroke: rgb(70, 130, 180); fill: rgb(255, 255, 255); stroke-dasharray: 0px, 0px;"></circle><text x="13" dy=".35em" style="font-size: 12px; fill-opacity: 1;" text-anchor="start">Combosquatting</text></g></g></g></svg>